<?xml version="1.0" standalone="no"?>
<!DOCTYPE svg PUBLIC "-//W3C//DTD SVG 20010904//EN"
 "http://www.w3.org/TR/2001/REC-SVG-20010904/DTD/svg10.dtd">
<svg version="1.0" xmlns="http://www.w3.org/2000/svg"
 width="300.000000pt" height="300.000000pt" viewBox="0 0 300.000000 300.000000"
 preserveAspectRatio="xMidYMid meet">
<metadata>
Created by potrace 1.10, written by Peter Selinger 2001-2011
</metadata>
<g transform="translate(0.000000,300.000000) scale(0.100000,-0.100000)"
fill="#000000" stroke="none">
<path d="M1060 1879 c-31 -14 -55 -18 -78 -14 -81 15 -235 -76 -277 -163 -11
-24 -27 -42 -36 -42 -9 0 -39 -20 -66 -44 -61 -55 -106 -148 -109 -222 -1 -30
-10 -64 -22 -84 -12 -18 -19 -37 -16 -42 8 -13 24 1 24 22 0 10 4 22 10 25 6
4 10 -9 10 -33 0 -88 89 -154 216 -160 61 -4 81 0 126 20 29 14 65 37 80 52
27 27 48 28 48 2 0 -8 7 -20 16 -27 14 -11 20 -10 40 14 13 16 24 37 24 47 0
11 13 25 32 34 39 20 48 20 48 2 0 -45 54 -16 65 34 5 25 11 28 51 32 42 3 44
2 44 -24 0 -41 20 -45 51 -10 16 17 31 27 34 22 4 -6 26 -9 50 -8 41 1 44 3
50 34 3 18 14 43 25 56 17 20 21 21 40 10 18 -11 21 -11 18 0 -3 7 -18 13 -34
13 -25 0 -32 -7 -52 -47 -19 -41 -27 -48 -51 -48 -16 0 -37 7 -45 16 -14 13
-16 14 -16 0 0 -8 -5 -18 -12 -22 -8 -5 -9 0 -5 17 5 21 4 22 -6 6 -34 -54
-36 -54 -37 -9 0 53 25 111 54 122 21 9 21 9 -1 9 -25 1 -48 -28 -59 -74 -8
-36 -20 -45 -56 -45 -20 0 -28 5 -29 18 0 13 -2 14 -5 2 -15 -45 -47 -101 -57
-97 -7 2 -13 30 -15 65 -2 51 1 65 18 82 15 15 16 20 5 20 -22 0 -35 -33 -35
-89 0 -39 -4 -53 -19 -61 -27 -14 -41 -13 -41 4 0 8 -5 18 -12 22 -8 5 -9 0
-5 -17 8 -31 -12 -99 -30 -99 -7 0 -14 -6 -14 -12 -2 -23 -18 66 -18 103 -1
27 5 41 22 52 18 13 19 16 5 16 -30 1 -51 -43 -43 -89 4 -22 4 -40 0 -40 -4 0
-30 21 -58 46 -111 100 -269 141 -361 94 l-39 -19 6 52 c19 178 164 290 302
233 53 -23 124 -95 157 -161 17 -33 33 -55 35 -48 7 19 -45 112 -90 160 -52
57 -104 83 -167 84 -45 1 -48 3 -39 20 19 36 95 102 144 125 61 29 123 31 174
4 66 -33 120 -114 136 -203 4 -20 12 -40 18 -44 10 -6 5 37 -13 108 -14 52
-69 129 -109 153 l-35 21 39 12 c112 33 233 -4 300 -92 15 -19 36 -73 51 -127
l24 -93 -5 68 c-5 75 -33 148 -72 190 l-27 27 52 0 c96 0 208 -54 235 -113 18
-40 9 -138 -21 -214 -11 -29 -17 -53 -12 -53 9 0 46 98 59 157 5 23 5 61 1 85
-5 24 -7 45 -5 46 7 8 102 -41 129 -66 67 -63 75 -161 22 -284 -25 -58 -3 -45
25 14 20 43 24 67 24 140 l0 88 40 0 c62 0 125 -37 153 -90 24 -46 26 -83 6
-180 -5 -26 -4 -32 5 -25 16 16 33 121 26 158 -4 18 -18 52 -31 76 -13 24 -24
45 -24 47 0 2 19 8 42 15 45 12 115 6 149 -12 29 -15 59 -69 59 -107 0 -22 4
-31 11 -26 22 13 1 96 -32 130 l-31 32 33 11 c72 25 139 5 139 -41 0 -20 -26
-42 -40 -33 -14 9 -13 62 3 68 6 3 -5 6 -27 6 -35 1 -37 -1 -25 -15 8 -9 19
-33 24 -52 20 -71 69 -65 81 10 7 38 7 38 26 21 11 -10 26 -30 34 -45 36 -70
-7 -214 -56 -188 -15 8 -17 6 -13 -8 5 -21 -21 -47 -37 -37 -5 3 -10 29 -10
56 0 42 3 51 22 58 15 5 18 10 9 16 -26 15 -46 -22 -44 -80 2 -47 -1 -55 -16
-55 -16 0 -18 7 -15 48 l4 47 -14 -48 c-18 -61 -32 -77 -66 -77 -22 0 -31 6
-38 28 l-10 27 1 -33 c0 -39 -28 -76 -38 -50 -4 9 -5 35 -3 59 3 43 3 44 40
44 41 0 64 16 55 39 -9 22 -38 20 -44 -3 -3 -12 -11 -17 -19 -14 -24 9 -41
-15 -48 -64 -7 -51 -29 -83 -57 -83 -13 0 -17 5 -12 18 5 12 -2 9 -26 -10 -40
-34 -76 -38 -68 -8 3 11 1 23 -4 26 -5 3 -9 -2 -9 -11 0 -9 -11 -32 -24 -51
-22 -33 -25 -34 -31 -15 -7 22 2 86 17 114 7 14 16 17 36 12 25 -6 26 -5 11
10 -9 9 -23 13 -33 9 -20 -8 -46 -55 -46 -83 0 -24 -30 -35 -77 -26 -25 4 -33
10 -29 21 3 8 4 14 3 14 -1 0 -17 -4 -36 -10 -30 -8 -33 -7 -28 10 3 11 1 23
-4 26 -8 5 -13 -10 -10 -29 1 -5 -3 -6 -8 -3 -5 4 -19 -6 -30 -20 l-21 -27 0
23 c0 33 39 110 55 110 8 0 15 -8 17 -17 2 -12 6 -14 10 -7 11 17 -15 46 -34
39 -10 -4 -27 -27 -38 -51 -22 -45 -36 -51 -88 -38 -19 6 -22 11 -17 33 l6 26
-17 -24 c-17 -23 -16 -25 5 -43 13 -10 39 -18 57 -18 32 0 34 -2 28 -25 -8
-31 13 -33 49 -5 30 24 58 25 99 4 20 -10 45 -14 69 -11 35 5 38 3 41 -21 4
-36 24 -38 45 -5 14 22 24 27 46 25 16 -2 35 2 44 10 9 7 27 11 40 10 13 -2
36 4 50 13 18 12 28 14 33 6 8 -14 36 -5 44 15 3 8 19 14 37 14 18 0 40 7 49
15 9 8 38 16 64 17 30 2 53 9 63 20 9 10 22 18 29 18 7 0 26 17 41 37 25 32
28 45 28 112 0 65 -4 81 -23 106 -55 70 -133 91 -217 59 -22 -8 -74 -16 -115
-17 -54 -1 -84 -7 -104 -20 -26 -17 -29 -17 -72 -1 -30 11 -58 15 -89 11 -40
-6 -46 -4 -62 19 -21 33 -110 84 -145 84 -16 0 -47 14 -71 33 -59 45 -144 71
-215 65 -45 -4 -67 0 -107 18 -65 31 -152 32 -215 3z m-466 -517 c-27 -18 -47
-92 -24 -92 6 0 10 13 10 29 0 34 20 53 52 51 37 -3 44 0 28 11 -11 8 -6 9 20
4 52 -9 191 -79 223 -113 l29 -30 -36 -27 c-102 -78 -256 -72 -340 14 -30 31
-39 48 -40 78 -1 27 3 38 14 39 33 3 34 5 15 16 -19 11 -19 11 0 19 26 10 63
11 49 1z"/>
<path d="M818 1211 c-23 -35 -24 -39 -8 -38 10 1 16 5 13 10 -2 4 3 19 12 33
9 14 15 28 13 30 -3 2 -16 -14 -30 -35z"/>
<path d="M715 1221 c-8 -14 37 -43 49 -31 6 6 4 15 -4 25 -14 17 -36 20 -45 6z"/>
<path d="M585 1210 c-4 -6 -1 -9 6 -8 7 2 13 -2 14 -9 0 -17 12 -26 24 -18 8
4 8 12 1 26 -12 21 -35 25 -45 9z"/>
<path d="M1147 1802 c21 -17 44 -54 63 -101 17 -41 35 -80 41 -88 30 -35 77 1
86 66 7 50 -27 126 -59 135 -28 7 -34 1 -19 -18 17 -20 10 -67 -12 -80 -15 -9
-21 -7 -33 8 -16 22 -19 86 -4 86 6 0 10 5 10 10 0 6 -24 10 -52 10 l-53 -1
32 -27z m171 -116 c0 -39 -21 -69 -45 -64 -26 5 -24 48 4 78 13 14 23 29 23
35 0 5 4 4 9 -4 5 -8 9 -28 9 -45z"/>
<path d="M866 1773 c-31 -21 -56 -41 -56 -45 0 -4 18 -8 40 -8 34 0 47 -7 91
-47 61 -58 83 -68 104 -47 33 34 10 121 -43 158 -50 34 -69 33 -136 -11z m140
-38 c13 -20 14 -28 4 -40 -7 -8 -20 -15 -30 -15 -21 0 -54 46 -46 66 9 23 54
17 72 -11z"/>
<path d="M1430 1786 c0 -2 12 -25 27 -51 24 -43 25 -51 14 -81 -7 -19 -9 -43
-6 -54 7 -23 51 -37 74 -23 25 15 51 74 51 115 0 38 -20 59 -83 86 -26 11 -77
17 -77 8z m106 -50 c7 -19 -14 -58 -29 -53 -17 5 -21 35 -7 52 16 19 29 19 36
1z m24 -75 c-5 -11 -8 -26 -5 -33 3 -8 -6 -18 -26 -25 -26 -10 -30 -10 -25 3
3 7 2 14 -2 14 -4 0 -8 9 -9 20 -1 13 4 20 17 20 10 0 22 5 25 10 3 6 13 10
21 10 11 0 12 -4 4 -19z"/>
<path d="M1697 1665 c16 -34 16 -38 -1 -83 -28 -73 -29 -78 -10 -97 17 -17 19
-16 41 9 13 15 23 40 23 57 0 17 7 44 16 60 18 35 10 50 -37 75 -43 22 -50 17
-32 -21z m63 -24 c0 -18 -18 -41 -32 -41 -12 0 -9 45 4 58 14 14 28 6 28 -17z"/>
<path d="M2083 1609 c-9 -9 -3 -20 23 -44 26 -25 34 -40 34 -67 0 -54 22 -65
54 -28 35 42 37 111 4 134 -26 19 -99 21 -115 5z m111 -25 c8 -22 -12 -56 -32
-52 -18 3 -27 30 -18 54 7 19 42 18 50 -2z"/>
<path d="M623 1582 c-26 -24 -83 -118 -83 -136 0 -3 17 2 38 11 34 14 44 14
127 -2 84 -16 93 -16 122 -1 89 45 14 137 -125 152 -42 5 -50 2 -79 -24z m111
-25 c34 -25 -9 -65 -61 -55 -29 5 -27 35 4 52 35 19 35 19 57 3z m106 -54 c0
-2 -6 -11 -14 -19 -14 -13 -86 -20 -86 -8 0 3 10 20 22 37 13 18 22 33 20 35
-1 1 -2 7 -2 13 0 6 14 -3 30 -21 17 -18 30 -34 30 -37z"/>
<path d="M1876 1601 c-3 -5 4 -27 16 -49 21 -37 21 -44 9 -77 -11 -32 -11 -39
2 -52 34 -34 82 33 82 115 0 32 -5 48 -19 58 -22 15 -82 19 -90 5z m82 -58
c-3 -31 -32 -43 -41 -18 -9 23 3 45 25 45 15 0 19 -6 16 -27z"/>
<path d="M1049 1566 c-15 -32 24 -126 52 -126 25 0 42 44 33 84 -9 46 -14 49
-33 25 -10 -13 -23 -19 -29 -15 -16 10 -15 43 1 49 9 4 9 6 -1 6 -7 1 -17 -10
-23 -23z"/>
<path d="M966 1562 c10 -13 24 -17 41 -14 25 5 25 5 -7 18 -44 19 -53 18 -34
-4z"/>
<path d="M1290 1533 c0 -38 24 -61 48 -46 21 13 25 33 12 53 -9 13 -11 13 -20
0 -9 -13 -12 -12 -25 4 -14 19 -15 18 -15 -11z"/>
<path d="M2403 1514 c-18 -18 -16 -24 7 -24 11 0 20 6 20 14 0 21 -13 26 -27
10z"/>
<path d="M1460 1496 c-7 -14 -10 -32 -7 -40 9 -22 44 -20 57 3 15 28 12 39 -7
37 -10 0 -17 5 -15 12 4 21 -14 13 -28 -12z"/>
<path d="M900 1438 c0 -6 -7 -19 -16 -29 -14 -16 -14 -19 6 -39 12 -12 29 -20
38 -18 24 4 28 55 6 79 -19 22 -34 25 -34 7z"/>
<path d="M1643 1414 c-7 -19 2 -28 22 -21 19 8 19 23 0 31 -9 3 -18 -1 -22
-10z"/>
<path d="M1483 1300 c-15 -26 -19 -28 -25 -13 -5 14 -7 12 -7 -9 -1 -38 13
-42 45 -14 23 19 26 26 16 38 -6 8 -9 18 -5 21 3 4 4 7 0 7 -3 0 -14 -14 -24
-30z"/>
</g>
</svg>
