<?xml version="1.0" standalone="no"?>
<!DOCTYPE svg PUBLIC "-//W3C//DTD SVG 20010904//EN"
 "http://www.w3.org/TR/2001/REC-SVG-20010904/DTD/svg10.dtd">
<svg version="1.0" xmlns="http://www.w3.org/2000/svg"
 width="512.000000pt" height="512.000000pt" viewBox="0 0 512.000000 512.000000"
 preserveAspectRatio="xMidYMid meet">
<metadata>
Created by potrace 1.14, written by Peter Selinger 2001-2017
</metadata>
<g transform="translate(0.000000,512.000000) scale(0.100000,-0.100000)"
fill="#000000" stroke="none">
<path d="M1885 3236 c-27 -7 -73 -24 -101 -38 -46 -23 -55 -24 -102 -15 -99
21 -218 -21 -337 -117 -67 -53 -138 -138 -161 -192 -9 -20 -23 -34 -40 -38
-43 -11 -129 -72 -167 -119 -85 -104 -137 -242 -137 -362 0 -55 -4 -76 -17
-86 -26 -22 -57 -99 -44 -112 13 -13 41 9 41 33 0 25 10 50 20 50 5 0 6 -18 3
-40 -12 -86 72 -195 192 -250 185 -85 365 -59 530 76 65 52 88 54 95 5 5 -36
29 -52 63 -43 25 6 59 58 73 111 10 40 15 46 43 52 18 4 38 12 44 18 17 17 33
13 34 -11 2 -23 19 -38 45 -38 25 0 66 49 83 100 15 45 15 45 62 45 27 0 57 3
68 7 18 7 20 3 21 -38 2 -45 14 -64 43 -64 15 0 75 58 82 79 4 12 10 11 32 -4
20 -13 40 -16 76 -13 l49 5 -5 -52 c-4 -42 -2 -53 11 -58 25 -10 59 7 93 46
26 30 33 33 45 21 16 -16 114 -37 139 -29 14 5 16 0 12 -40 -5 -42 -4 -45 18
-45 14 0 40 13 59 28 51 42 108 47 166 15 40 -23 54 -25 118 -21 l73 5 1 -36
c3 -75 51 -76 93 -2 20 36 24 39 48 30 30 -12 65 -5 100 20 19 13 38 16 69 13
37 -4 49 0 82 27 37 29 39 30 45 11 11 -35 59 -21 83 24 8 16 19 19 60 17 43
-2 54 2 85 28 25 23 45 31 71 31 21 0 46 5 57 10 13 7 19 7 19 0 0 -19 34 -10
60 15 15 14 46 35 71 48 79 40 124 145 123 287 -1 62 -33 130 -89 185 -91 92
-195 110 -336 60 -62 -22 -93 -26 -194 -28 -115 -2 -123 -3 -179 -34 l-58 -32
-42 22 c-35 19 -57 22 -147 22 l-105 0 -26 36 c-50 71 -193 148 -274 149 -32
0 -46 6 -69 30 -89 93 -276 151 -421 131 -63 -9 -69 -8 -118 19 -99 56 -222
73 -331 46z"/>
</g>
</svg>
